<svg width="290" height="290" viewBox="0 0 290 290" fill="none" xmlns="http://www.w3.org/2000/svg">
<path d="M228.059 196.35H248.706V248.022H228.059V196.35Z" fill="#F0AD00"/>
<path d="M186.765 144.68H207.412V248.023H186.765V144.68Z" fill="#F0AD00"/>
<path d="M93.8527 248.023C80.1679 248.006 67.0483 242.557 57.3717 232.87C47.6951 223.184 42.2516 210.05 42.2352 196.351H62.8822C62.8822 202.483 64.6986 208.477 68.1017 213.576C71.5048 218.674 76.3417 222.648 82.0008 224.994C87.66 227.341 93.8871 227.955 99.8948 226.758C105.902 225.562 111.421 222.61 115.752 218.274C120.084 213.938 123.033 208.414 124.228 202.4C125.423 196.386 124.81 190.152 122.466 184.487C120.122 178.822 116.152 173.98 111.059 170.573C105.966 167.167 99.9781 165.348 93.8527 165.348V144.68C107.543 144.68 120.672 150.124 130.352 159.814C140.032 169.504 145.47 182.647 145.47 196.351C145.47 210.055 140.032 223.198 130.352 232.889C120.672 242.579 107.543 248.023 93.8527 248.023Z" fill="#F0AD00"/>
<path d="M269.353 0H21.5887C16.1144 0.00547176 10.8659 2.1848 6.99506 6.05972C3.12418 9.93464 0.947116 15.1886 0.94165 20.6686V268.691C0.947116 274.171 3.12418 279.425 6.99506 283.3C10.8659 287.175 16.1144 289.354 21.5887 289.36H269.353C274.826 289.352 280.073 287.171 283.944 283.297C287.814 279.423 289.992 274.17 290 268.691V20.6686C289.995 15.1886 287.817 9.93464 283.947 6.05972C280.076 2.1848 274.827 0.00547176 269.353 0ZM269.353 93.0085H124.824V20.6686H269.353V93.0085ZM104.177 20.6686V93.0085H21.5887V20.6686H104.177ZM21.5887 268.691V113.677H269.353L269.374 268.691H21.5887Z" fill="#F0AD00"/>
</svg>
